<?xml version="1.0" standalone="no"?>
<svg xmlns:xlink="http://www.w3.org/1999/xlink" id="wave" style="transform:rotate(0deg); transition: 0.3s" viewBox="0 0 1440 490" version="1.1" xmlns="http://www.w3.org/2000/svg"><defs><linearGradient id="sw-gradient-0" x1="0" x2="0" y1="1" y2="0"><stop stop-color="rgba(4, 212, 139, 1)" offset="0%"/><stop stop-color="rgba(0, 255, 166, 1)" offset="100%"/></linearGradient></defs><path style="transform:translate(0, 0px); opacity:1" fill="url(#sw-gradient-0)" d="M0,245L18.5,261.3C36.9,278,74,310,111,334.8C147.7,359,185,376,222,318.5C258.5,261,295,131,332,98C369.2,65,406,131,443,204.2C480,278,517,359,554,359.3C590.8,359,628,278,665,236.8C701.5,196,738,196,775,187.8C812.3,180,849,163,886,196C923.1,229,960,310,997,294C1033.8,278,1071,163,1108,171.5C1144.6,180,1182,310,1218,375.7C1255.4,441,1292,441,1329,392C1366.2,343,1403,245,1440,204.2C1476.9,163,1514,180,1551,220.5C1587.7,261,1625,327,1662,343C1698.5,359,1735,327,1772,326.7C1809.2,327,1846,359,1883,343C1920,327,1957,261,1994,261.3C2030.8,261,2068,327,2105,334.8C2141.5,343,2178,294,2215,261.3C2252.3,229,2289,212,2326,187.8C2363.1,163,2400,131,2437,122.5C2473.8,114,2511,131,2548,138.8C2584.6,147,2622,147,2640,147L2658.5,147L2658.5,490L2640,490C2621.5,490,2585,490,2548,490C2510.8,490,2474,490,2437,490C2400,490,2363,490,2326,490C2289.2,490,2252,490,2215,490C2178.5,490,2142,490,2105,490C2067.7,490,2031,490,1994,490C1956.9,490,1920,490,1883,490C1846.2,490,1809,490,1772,490C1735.4,490,1698,490,1662,490C1624.6,490,1588,490,1551,490C1513.8,490,1477,490,1440,490C1403.1,490,1366,490,1329,490C1292.3,490,1255,490,1218,490C1181.5,490,1145,490,1108,490C1070.8,490,1034,490,997,490C960,490,923,490,886,490C849.2,490,812,490,775,490C738.5,490,702,490,665,490C627.7,490,591,490,554,490C516.9,490,480,490,443,490C406.2,490,369,490,332,490C295.4,490,258,490,222,490C184.6,490,148,490,111,490C73.8,490,37,490,18,490L0,490Z"/></svg>